<?xml version="1.0" encoding="utf-8"?>
<svg viewBox="0 0 2000 2000" xmlns="http://www.w3.org/2000/svg">
  <path d="M 89.956 70.028 C 75.302 70.041 63.449 81.908 63.422 96.548 L 63.422 552.227 C 63.449 566.867 75.302 578.72 89.956 578.747 C 104.596 578.72 116.462 566.867 116.476 552.227 L 116.476 123.121 L 545.621 123.121 C 560.288 123.108 572.154 111.201 572.154 96.548 C 572.128 81.908 560.274 70.041 545.621 70.028 L 89.956 70.028 Z M 1457.459 70.028 C 1450.379 69.948 1443.552 72.721 1438.525 77.695 C 1433.485 82.681 1430.659 89.468 1430.645 96.548 C 1430.632 103.641 1433.472 110.441 1438.512 115.428 C 1443.539 120.414 1450.365 123.188 1457.459 123.121 L 1886.604 123.121 L 1886.604 552.227 C 1886.631 566.867 1898.497 578.72 1913.137 578.747 C 1927.791 578.76 1939.684 566.88 1939.711 552.227 L 1939.711 96.548 C 1939.684 81.895 1927.791 70.015 1913.137 70.028 L 1457.459 70.028 Z M 999.886 412.32 C 668.381 412.32 400.715 679.973 400.715 1011.492 C 400.715 1343.011 668.381 1610.624 999.886 1610.624 C 1331.406 1610.624 1599.072 1343.011 1599.072 1011.492 C 1599.072 679.973 1331.406 412.32 999.886 412.32 Z M 999.886 465.414 C 1302.899 465.414 1545.965 708.48 1545.965 1011.492 C 1545.965 1060.652 1539.485 1108.172 1527.458 1153.385 L 1237.113 868.919 C 1232.019 864.066 1225.219 861.426 1218.206 861.572 C 1211.393 861.572 1204.833 864.199 1199.886 868.919 L 999.846 1064.732 L 799.887 868.919 C 794.874 864.119 788.18 861.492 781.234 861.572 C 774.42 861.572 767.86 864.199 762.914 868.919 L 472.315 1153.385 C 460.315 1108.172 453.808 1060.652 453.808 1011.492 C 453.808 708.48 696.887 465.414 999.886 465.414 Z M 781.527 925.066 L 1169.379 1305.051 C 1174.446 1310.051 1181.299 1312.811 1188.419 1312.718 C 1195.526 1312.625 1202.299 1309.678 1207.219 1304.545 C 1217.419 1294.025 1217.193 1277.251 1206.713 1267.038 L 1037.846 1101.678 L 1218.566 924.852 L 1509.125 1209.611 C 1488.872 1261.931 1460.872 1310.291 1426.445 1353.264 L 573.114 1353.211 C 538.688 1310.265 510.714 1261.918 490.475 1209.611 L 781.527 925.066 Z M 621.208 1405.758 L 1378.565 1405.758 C 1280.592 1499.851 1147.393 1557.517 999.886 1557.517 C 852.394 1557.517 719.181 1499.837 621.208 1405.758 Z M 89.956 1437.291 C 75.302 1437.304 63.449 1449.171 63.422 1463.811 L 63.422 1919.73 C 63.422 1934.383 75.289 1946.289 89.956 1946.303 L 545.621 1946.303 C 560.288 1946.289 572.154 1934.396 572.154 1919.73 C 572.128 1905.09 560.261 1893.223 545.621 1893.21 L 116.476 1893.21 L 116.476 1463.811 C 116.462 1449.171 104.596 1437.304 89.956 1437.291 Z M 1913.137 1437.291 C 1898.497 1437.304 1886.631 1449.171 1886.604 1463.811 L 1886.604 1893.21 L 1457.459 1893.21 C 1450.379 1893.143 1443.552 1895.903 1438.525 1900.876 C 1433.485 1905.863 1430.659 1912.65 1430.645 1919.73 C 1430.632 1926.823 1433.472 1933.623 1438.512 1938.609 C 1443.539 1943.596 1450.365 1946.369 1457.459 1946.303 L 1913.137 1946.303 C 1920.177 1946.303 1926.937 1943.503 1931.924 1938.529 C 1936.911 1933.543 1939.711 1926.783 1939.711 1919.73 L 1939.711 1463.811 C 1939.684 1449.144 1927.791 1437.278 1913.137 1437.291 Z" style="fill:#0000000; fill-opacity: 1; fill-rule: nonzero; stroke: none;"/>
</svg>