<svg xmlns="http://www.w3.org/2000/svg" xmlns:xlink="http://www.w3.org/1999/xlink" version="1.1" width="256" height="256" viewBox="0 0 256 256" xml:space="preserve">

<defs>
</defs>
<g style="stroke: none; stroke-width: 0; stroke-dasharray: none; stroke-linecap: butt; stroke-linejoin: miter; stroke-miterlimit: 10; fill: none; fill-rule: nonzero; opacity: 1;" transform="translate(1.4065934065934016 1.4065934065934016) scale(2.81 2.81)" >
	<circle cx="45" cy="45" r="45" style="stroke: none; stroke-width: 1; stroke-dasharray: none; stroke-linecap: butt; stroke-linejoin: miter; stroke-miterlimit: 10; fill: rgb(174,0,0); fill-rule: nonzero; opacity: 1;" transform="  matrix(1 0 0 1 0 0) "/>
	<path d="M 66.933 21.247 c -5.547 -5.688 -12.177 -7.933 -20.277 -6.867 c -0.235 0.031 -0.463 0.104 -0.673 0.215 c -4.693 2.481 -7.227 6.807 -7.532 12.857 c -0.035 0.688 0.287 1.345 0.852 1.74 c 3.935 2.75 8.514 3.601 13.646 2.547 c -0.178 0.585 -0.358 1.178 -0.541 1.775 c -2.154 7.057 -4.521 14.809 -5.283 21.137 c -2.948 -2.766 -6.968 -4.717 -11.319 -5.34 c -0.52 -0.074 -1.036 -0.122 -1.553 -0.153 c -0.143 -0.008 -0.285 -0.012 -0.426 -0.016 l -0.123 -0.003 c -0.367 -0.011 -0.731 -0.012 -1.085 0.001 c -0.186 0.005 -0.372 0.012 -0.553 0.024 c -0.474 0.032 -0.939 0.082 -1.355 0.148 c -0.042 0.004 -0.163 0.021 -0.205 0.027 c -0.471 0.081 -0.958 0.196 -1.495 0.352 c -0.115 0.034 -0.227 0.071 -0.339 0.109 l -0.1 0.034 c -0.314 0.104 -0.62 0.22 -0.969 0.37 c -4.09 -5.699 -11.914 -7.272 -18.513 -5.866 c -1.68 -1.833 -5.887 -2.979 -8.886 -3.545 C 0.074 42.179 0 43.581 0 45 c 0 17.383 9.863 32.454 24.293 39.949 c 3.328 0.952 6.882 1.433 10.685 1.433 c 8.603 0 18.466 -2.443 29.792 -7.353 c 0.365 -0.158 0.674 -0.421 0.889 -0.755 c 8.466 -13.193 9.158 -35.824 1.723 -56.313 C 67.284 21.694 67.131 21.45 66.933 21.247 z" style="stroke: none; stroke-width: 1; stroke-dasharray: none; stroke-linecap: butt; stroke-linejoin: miter; stroke-miterlimit: 10; fill: rgb(92,0,0); fill-rule: nonzero; opacity: 1;" transform=" matrix(1 0 0 1 0 0) " stroke-linecap="round" />
	<path d="M 46.917 12.363 c -4.117 2.176 -6.206 5.959 -6.469 11.189 c 4.648 3.249 9.874 3.277 15.463 1.271 c -3.024 10.308 -7.84 24.002 -6.926 31.682 c -3.704 -8.075 -16.025 -11.863 -22.101 -7.647 c -6.445 -5.729 -9.541 -5.979 -15.616 -4.257 l -9.313 0.362 c 0.129 12.882 6.06 24.374 15.314 31.979 c 0.297 -0.225 0.594 -0.441 0.891 -0.682 c 13.918 7.818 31.399 3.182 45.814 -3.066 c 7.421 -11.564 9.271 -33.21 1.527 -54.551 C 60.927 13.952 55.09 11.285 46.917 12.363 z" style="stroke: none; stroke-width: 1; stroke-dasharray: none; stroke-linecap: butt; stroke-linejoin: miter; stroke-miterlimit: 10; fill: rgb(255,204,154); fill-rule: nonzero; opacity: 1;" transform=" matrix(1 0 0 1 0 0) " stroke-linecap="round" />
	<path d="M 67.229 23.969 c 1.832 13.099 0.973 27.613 -5.828 45.25 c -0.264 0.685 -0.861 1.215 -1.573 1.396 c -13.845 3.523 -25.967 4.887 -34.017 1.154 l -4.499 6.009 c 13.13 5.509 28.808 1.361 42.029 -4.287 c 0.427 -0.182 0.786 -0.483 1.027 -0.88 C 70.875 61.896 72.791 43.157 67.229 23.969 z" style="stroke: none; stroke-width: 1; stroke-dasharray: none; stroke-linecap: butt; stroke-linejoin: miter; stroke-miterlimit: 10; fill: rgb(240,180,121); fill-rule: nonzero; opacity: 1;" transform=" matrix(1 0 0 1 0 0) " stroke-linecap="round" />
	<path d="M 52.203 23.934 c 0.25 0.123 -0.286 0.918 -0.966 2.098 c -0.283 0.039 -0.564 0.072 -0.844 0.098 C 51.177 24.733 51.925 23.798 52.203 23.934 z" style="stroke: none; stroke-width: 1; stroke-dasharray: none; stroke-linecap: butt; stroke-linejoin: miter; stroke-miterlimit: 10; fill: rgb(240,180,121); fill-rule: nonzero; opacity: 1;" transform=" matrix(1 0 0 1 0 0) " stroke-linecap="round" />
	<path d="M 49.952 22.248 c 0.341 0.168 -0.777 1.578 -1.735 3.524 c -0.07 0.143 -0.132 0.281 -0.197 0.421 c -0.244 -0.013 -0.484 -0.05 -0.727 -0.075 c 0.096 -0.213 0.197 -0.429 0.306 -0.65 C 48.557 23.522 49.61 22.081 49.952 22.248 z" style="stroke: none; stroke-width: 1; stroke-dasharray: none; stroke-linecap: butt; stroke-linejoin: miter; stroke-miterlimit: 10; fill: rgb(240,180,121); fill-rule: nonzero; opacity: 1;" transform=" matrix(1 0 0 1 0 0) " stroke-linecap="round" />
	<path d="M 47.857 20.224 c 0.341 0.168 -0.777 1.578 -1.735 3.524 c -0.357 0.726 -0.642 1.424 -0.876 2.005 c -0.215 -0.054 -0.43 -0.11 -0.643 -0.174 c 0.212 -0.62 0.518 -1.356 0.901 -2.135 C 46.462 21.498 47.515 20.056 47.857 20.224 z" style="stroke: none; stroke-width: 1; stroke-dasharray: none; stroke-linecap: butt; stroke-linejoin: miter; stroke-miterlimit: 10; fill: rgb(240,180,121); fill-rule: nonzero; opacity: 1;" transform=" matrix(1 0 0 1 0 0) " stroke-linecap="round" />
	<path d="M 45.687 18.327 c 0.341 0.168 -0.777 1.578 -1.735 3.524 c -0.594 1.208 -0.987 2.336 -1.282 2.98 c -0.167 -0.079 -0.336 -0.145 -0.501 -0.232 c 0.148 -0.714 0.567 -1.838 1.165 -3.052 C 44.293 19.6 45.346 18.159 45.687 18.327 z" style="stroke: none; stroke-width: 1; stroke-dasharray: none; stroke-linecap: butt; stroke-linejoin: miter; stroke-miterlimit: 10; fill: rgb(240,180,121); fill-rule: nonzero; opacity: 1;" transform=" matrix(1 0 0 1 0 0) " stroke-linecap="round" />
	<path d="M 26.884 48.858 c -3.563 -6.941 -12.541 -7.979 -18.616 -6.258 c -1.043 -1.964 -4.262 -3.548 -7.798 -4.075 C 0.166 40.641 0 42.801 0 45 c 0 0.808 0.023 1.61 0.066 2.408 l 0 0 c 0.001 0.017 0.003 0.034 0.004 0.052 c 0.013 0.239 0.038 0.474 0.054 0.712 c 0.038 0.54 0.076 1.079 0.132 1.614 c 0.031 0.296 0.075 0.588 0.112 0.882 c 0.062 0.489 0.123 0.979 0.2 1.463 c 0.031 0.193 0.067 0.385 0.103 0.576 c 0.019 0.11 0.039 0.221 0.059 0.331 c 0.085 0.47 0.171 0.94 0.27 1.405 c 0.007 0.034 0.016 0.068 0.024 0.102 c 0.057 0.264 0.12 0.526 0.182 0.788 c 0.109 0.464 0.221 0.927 0.345 1.386 c 0.058 0.216 0.122 0.43 0.183 0.645 c 0.02 0.07 0.039 0.14 0.06 0.21 c 0.135 0.464 0.275 0.926 0.424 1.384 c 0.063 0.195 0.13 0.388 0.197 0.581 c 0.025 0.074 0.05 0.149 0.075 0.223 c 0.163 0.469 0.333 0.936 0.511 1.398 c 0.048 0.125 0.098 0.25 0.148 0.375 c 0.047 0.12 0.094 0.241 0.142 0.361 c 0.196 0.482 0.4 0.959 0.612 1.432 C 4 63.544 4.096 63.76 4.196 63.975 c 0.234 0.502 0.479 0.997 0.73 1.488 C 5.018 65.642 5.107 65.823 5.201 66 c 0.284 0.537 0.581 1.067 0.887 1.591 c 0.072 0.124 0.141 0.25 0.214 0.373 c 0.358 0.602 0.731 1.195 1.116 1.779 c 0.028 0.042 0.053 0.085 0.081 0.127 c 1.044 1.57 2.188 3.069 3.416 4.492 c 0.064 0.075 0.129 0.15 0.194 0.224 c 1.239 1.418 2.563 2.761 3.969 4.014 c 1.004 -0.718 2.025 -1.481 3.083 -2.339 c 4.879 2.741 10.2 3.926 15.669 4.073 c 3.206 -10.738 3.892 -21.74 1.696 -33.042 C 32.29 46.828 29.152 47.284 26.884 48.858 z" style="stroke: none; stroke-width: 1; stroke-dasharray: none; stroke-linecap: butt; stroke-linejoin: miter; stroke-miterlimit: 10; fill: rgb(33,33,33); fill-rule: nonzero; opacity: 1;" transform=" matrix(1 0 0 1 0 0) " stroke-linecap="round" />
	<path d="M 19.931 67.246 c -0.771 -0.969 -2.144 -1.134 -3.127 -0.38 c -2.527 1.937 -5.18 3.581 -7.963 4.92 c 1.841 2.481 3.934 4.762 6.236 6.814 c 1.004 -0.718 2.025 -1.481 3.083 -2.339 c 0.532 0.299 1.072 0.571 1.614 0.834 c 0.583 0.284 1.174 0.541 1.768 0.784 c 0.509 0.207 1.023 0.395 1.54 0.574 c 0.313 0.109 0.626 0.221 0.942 0.32 c 0.522 0.162 1.047 0.312 1.576 0.448 c 0.135 0.035 0.272 0.067 0.408 0.1 c 2.55 0.62 5.168 0.941 7.822 1.013 c 0.633 -2.122 1.139 -4.257 1.573 -6.4 C 28.756 73.569 23.394 71.596 19.931 67.246 z" style="stroke: none; stroke-width: 1; stroke-dasharray: none; stroke-linecap: butt; stroke-linejoin: miter; stroke-miterlimit: 10; fill: rgb(0,0,0); fill-rule: nonzero; opacity: 1;" transform=" matrix(1 0 0 1 0 0) " stroke-linecap="round" />
	<path d="M 29.435 47.655 c 1.838 -0.563 3.939 -0.672 6.089 -0.364 c 2.197 11.303 1.51 22.304 -1.696 33.042 c -1.954 -0.052 -3.888 -0.244 -5.79 -0.585 C 30.336 69.242 30.883 58.553 29.435 47.655 z" style="stroke: none; stroke-width: 1; stroke-dasharray: none; stroke-linecap: butt; stroke-linejoin: miter; stroke-miterlimit: 10; fill: rgb(0,0,0); fill-rule: nonzero; opacity: 1;" transform=" matrix(1 0 0 1 0 0) " stroke-linecap="round" />
	<path d="M 48.92 56.271 c 1.707 1.984 1.703 3.852 1.437 5.832 c -0.168 1.251 -0.729 2.396 -1.985 2.524 l 0 0 C 50.578 63.239 49.739 58.705 48.92 56.271 z" style="stroke: none; stroke-width: 1; stroke-dasharray: none; stroke-linecap: butt; stroke-linejoin: miter; stroke-miterlimit: 10; fill: rgb(240,180,121); fill-rule: nonzero; opacity: 1;" transform=" matrix(1 0 0 1 0 0) " stroke-linecap="round" />
	<path d="M 45.403 71.561 c -2.507 0.752 -4.211 -0.012 -5.912 -1.061 c -1.075 -0.663 -1.892 -1.641 -1.498 -2.841 l 0 0 C 38.363 70.238 42.846 71.317 45.403 71.561 z" style="stroke: none; stroke-width: 1; stroke-dasharray: none; stroke-linecap: butt; stroke-linejoin: miter; stroke-miterlimit: 10; fill: rgb(240,180,121); fill-rule: nonzero; opacity: 1;" transform=" matrix(1 0 0 1 0 0) " stroke-linecap="round" />
</g>
</svg>