<svg xmlns="http://www.w3.org/2000/svg" xmlns:xlink="http://www.w3.org/1999/xlink" version="1.1" width="256" height="256" viewBox="0 0 256 256" xml:space="preserve">

<defs>
</defs>
<g style="stroke: none; stroke-width: 0; stroke-dasharray: none; stroke-linecap: butt; stroke-linejoin: miter; stroke-miterlimit: 10; fill: none; fill-rule: nonzero; opacity: 1;" transform="translate(1.4065934065934016 1.4065934065934016) scale(2.81 2.81)" >
	<circle cx="45" cy="45" r="45" style="stroke: none; stroke-width: 1; stroke-dasharray: none; stroke-linecap: butt; stroke-linejoin: miter; stroke-miterlimit: 10; fill: rgb(174,0,0); fill-rule: nonzero; opacity: 1;" transform="  matrix(1 0 0 1 0 0) "/>
	<path d="M 84.453 46.928 c 0.197 -0.345 0.287 -0.74 0.259 -1.136 c -0.559 -7.73 -6.923 -16.848 -15.838 -22.688 c -0.237 -0.156 -0.506 -0.259 -0.787 -0.303 c -4.013 -0.626 -7.569 0.53 -10.553 3.446 c -0.17 0.166 -0.309 0.361 -0.41 0.575 c -0.36 0.761 -0.665 1.708 -0.729 2.801 c -0.563 -1.638 -1.767 -3.049 -3.59 -4.216 c 0.232 -0.344 0.358 -0.759 0.343 -1.193 c -0.029 -0.806 -0.54 -1.517 -1.296 -1.8 c -4.986 -1.875 -11.336 -1.633 -14.654 2.962 c -1.705 0.76 -2.95 2.085 -3.543 3.79 c -0.024 0.068 -0.047 0.138 -0.068 0.207 c -0.092 -0.988 -0.377 -1.848 -0.709 -2.55 c -0.102 -0.214 -0.241 -0.409 -0.41 -0.575 c -2.983 -2.915 -6.534 -4.073 -10.554 -3.446 c -0.281 0.044 -0.549 0.147 -0.787 0.303 c -8.914 5.84 -15.278 14.958 -15.837 22.688 c -0.029 0.396 0.061 0.792 0.258 1.136 c 3.08 5.39 6.297 9.254 9.83 11.804 c 0.077 0.067 0.159 0.128 0.245 0.183 c 0.005 0.004 0.009 0.007 0.013 0.009 c 0.981 0.687 2.007 1.279 3.048 1.761 c 0.004 0.003 0.104 0.049 0.108 0.051 c 0.754 0.342 1.523 0.63 2.313 0.863 c 0.073 0.023 0.146 0.047 0.224 0.068 c 0.291 0.08 0.585 0.15 0.883 0.214 c 0.041 0.14 0.082 0.276 0.124 0.41 l 0.103 0.326 c 0.231 0.721 0.489 1.418 0.766 2.077 c 0.131 0.312 0.266 0.612 0.418 0.932 c 0.117 0.245 0.236 0.485 0.357 0.718 c 0.003 0.005 0.081 0.147 0.083 0.152 c 0.121 0.226 0.244 0.449 0.363 0.651 l 0.082 0.135 c 0.231 0.387 0.472 0.758 0.74 1.143 c 0.479 0.687 1.002 1.342 1.644 2.055 c 0.27 0.299 0.549 0.593 0.836 0.882 c 0.018 0.019 0.037 0.037 0.055 0.055 l -0.001 0.001 c 0.193 0.193 0.391 0.386 0.621 0.604 c 0.524 0.498 1.077 0.996 1.659 1.506 c -0.046 4.965 0.09 9.918 0.367 14.046 C 34.999 89.139 39.898 90 45 90 c 5.097 0 9.991 -0.86 14.559 -2.421 c 0.279 -4.139 0.415 -9.084 0.368 -14.053 c 0.139 -0.122 0.276 -0.243 0.412 -0.363 c 0.521 -0.462 1.018 -0.918 1.494 -1.38 l 0.236 -0.228 c 2.591 -2.563 4.189 -5.11 5.349 -8.522 c 0.118 -0.351 0.232 -0.716 0.332 -1.056 c 0.007 -0.022 0.022 -0.068 0.03 -0.097 c 0.683 -0.148 1.358 -0.342 2.017 -0.575 c 0.127 -0.045 0.253 -0.094 0.378 -0.144 l 0.099 -0.038 c 0.557 -0.217 1.06 -0.438 1.528 -0.675 l 0.369 -0.193 c 0.211 -0.111 0.42 -0.224 0.631 -0.345 c 0.175 -0.101 0.346 -0.205 0.524 -0.314 c 0.142 -0.088 0.281 -0.175 0.418 -0.264 c 0.2 -0.13 0.4 -0.264 0.587 -0.395 c 0.021 -0.013 0.097 -0.064 0.117 -0.079 c 0.035 -0.025 0.07 -0.051 0.104 -0.078 C 78.115 56.23 81.355 52.352 84.453 46.928 z M 32.002 44.313 c -0.044 0 -0.089 0 -0.133 0.001 c -0.881 0.012 -1.778 0.155 -2.68 0.427 c -0.928 -1.211 -2.312 -2.219 -4.006 -2.886 c -1.092 -0.43 -2.221 -0.684 -3.331 -0.764 c 1.1 -2.249 2.078 -4.889 2.986 -7.399 c 1.583 1.313 3.403 2.009 5.44 2.076 c 0.707 0.024 1.34 -0.311 1.725 -0.882 c 0.631 -0.937 1.045 -1.835 1.296 -2.682 c 0.103 1.26 0.488 2.591 1.145 3.944 c -0.73 0.541 -1.205 1.408 -1.205 2.384 v 1.593 c 0 2.022 1.141 3.863 2.877 4.795 c 0.093 0.249 0.196 0.495 0.306 0.736 C 35.156 44.778 33.645 44.313 32.002 44.313 z M 63.581 42.433 c -0.246 0.134 -0.48 0.278 -0.706 0.427 l -0.247 0.17 c -0.159 0.113 -0.314 0.229 -0.494 0.373 l -0.201 0.166 c -0.194 0.167 -0.38 0.34 -0.502 0.469 c -0.031 0.029 -0.086 0.083 -0.115 0.113 c -0.179 0.188 -0.342 0.384 -0.505 0.597 c -1.978 -0.594 -3.936 -0.571 -5.654 0.086 c -0.561 0.215 -1.1 0.505 -1.592 0.853 c 0.116 -0.252 0.223 -0.508 0.32 -0.769 c 1.736 -0.932 2.877 -2.772 2.877 -4.795 v -1.592 c 0 -0.958 -0.457 -1.812 -1.165 -2.354 c 0.681 -1.339 1.063 -2.622 1.146 -3.839 c 0.255 0.807 0.657 1.659 1.255 2.547 c 0.384 0.571 1.048 0.907 1.725 0.882 c 2.037 -0.067 3.857 -0.763 5.439 -2.076 c 0.908 2.51 1.886 5.149 2.985 7.397 C 66.592 41.199 65.014 41.649 63.581 42.433 z" style="stroke: none; stroke-width: 1; stroke-dasharray: none; stroke-linecap: butt; stroke-linejoin: miter; stroke-miterlimit: 10; fill: rgb(92,0,0); fill-rule: nonzero; opacity: 1;" transform=" matrix(1 0 0 1 0 0) " stroke-linecap="round" />
	<path d="M 55.916 69.622 c 3.993 -3.434 8.635 -6.014 10.267 -12.488 c 7.512 -0.989 12.835 -7.723 16.534 -14.198 c -0.47 -6.505 -5.925 -15.255 -14.938 -21.16 c -3.072 -0.481 -6.049 0.166 -8.847 2.901 c -0.945 1.998 -0.663 4.03 0.725 6.091 c 2.69 -0.088 4.684 -1.564 6.236 -3.916 c 1.784 4.777 3.849 11.349 6.381 14.007 c -3.704 -2.014 -9.463 0.052 -10.572 3.382 c -3.328 -1.623 -6.464 -1.077 -8.282 1.305 c -1.504 -0.457 -3.227 -1.468 -4.336 -2.392 l -4.084 0 l -4.084 0 c -1.11 0.924 -2.832 1.935 -4.336 2.392 c -1.818 -2.382 -4.954 -2.929 -8.282 -1.305 c -1.109 -3.33 -6.868 -5.396 -10.572 -3.382 c 2.532 -2.658 4.598 -9.231 6.381 -14.007 c 1.553 2.352 3.546 3.828 6.236 3.916 c 1.388 -2.062 1.67 -4.093 0.725 -6.091 c -2.798 -2.734 -5.775 -3.382 -8.847 -2.901 c -9.013 5.905 -14.468 14.655 -14.938 21.16 c 3.699 6.475 9.022 13.209 16.534 14.198 c 1.632 6.474 6.273 9.054 10.267 12.488 H 55.916 z" style="stroke: none; stroke-width: 1; stroke-dasharray: none; stroke-linecap: butt; stroke-linejoin: miter; stroke-miterlimit: 10; fill: rgb(255,204,154); fill-rule: nonzero; opacity: 1;" transform=" matrix(1 0 0 1 0 0) " stroke-linecap="round" />
	<path d="M 22.235 53.261 c -4.136 -0.851 -8.369 -4.828 -12.643 -10.125 c -0.219 -0.271 -0.295 -0.642 -0.2 -0.978 c 2.433 -8.635 6.236 -14.394 10.658 -18.85 c -7.572 5.708 -12.175 13.373 -12.75 19.294 c -0.021 0.219 0.03 0.436 0.14 0.626 c 3.424 5.921 8.216 11.971 14.796 13.596 V 53.261 z" style="stroke: none; stroke-width: 1; stroke-dasharray: none; stroke-linecap: butt; stroke-linejoin: miter; stroke-miterlimit: 10; fill: rgb(240,180,121); fill-rule: nonzero; opacity: 1;" transform=" matrix(1 0 0 1 0 0) " stroke-linecap="round" />
	<path d="M 69.95 23.308 c 4.422 4.456 8.225 10.214 10.658 18.85 c 0.095 0.336 0.018 0.707 -0.2 0.978 c -4.258 5.277 -8.475 9.244 -12.596 10.115 v 3.563 c 6.556 -1.642 11.332 -7.678 14.749 -13.585 c 0.11 -0.191 0.161 -0.407 0.14 -0.626 C 82.125 36.681 77.522 29.016 69.95 23.308 z" style="stroke: none; stroke-width: 1; stroke-dasharray: none; stroke-linecap: butt; stroke-linejoin: miter; stroke-miterlimit: 10; fill: rgb(240,180,121); fill-rule: nonzero; opacity: 1;" transform=" matrix(1 0 0 1 0 0) " stroke-linecap="round" />
	<path d="M 64.539 41.188 c -1.361 0.744 -2.423 1.81 -2.837 3.053 c -3.328 -1.624 -6.464 -1.077 -8.282 1.305 c -1.504 -0.457 -3.227 -1.468 -4.336 -2.392 H 45 h -0.015 h -4.084 c -1.11 0.924 -2.832 1.935 -4.336 2.392 c -1.818 -2.382 -4.954 -2.929 -8.282 -1.305 c -0.414 -1.243 -1.476 -2.309 -2.837 -3.053 c -4.05 3.669 -6.919 8.044 -8.756 13.036 c 2.12 1.5 4.478 2.563 7.112 2.91 c 1.632 6.474 4.273 9.054 8.267 12.488 c -0.081 5.809 0.083 13.189 0.675 18.674 C 36.642 89.398 40.75 90 45 90 c 4.245 0 8.347 -0.601 12.241 -1.699 c 0.592 -5.486 0.757 -12.868 0.676 -18.679 c 3.994 -3.434 6.635 -6.014 8.267 -12.488 c 2.633 -0.347 4.992 -1.41 7.112 -2.91 C 71.458 49.232 68.589 44.857 64.539 41.188 z" style="stroke: none; stroke-width: 1; stroke-dasharray: none; stroke-linecap: butt; stroke-linejoin: miter; stroke-miterlimit: 10; fill: rgb(33,33,33); fill-rule: nonzero; opacity: 1;" transform=" matrix(1 0 0 1 0 0) " stroke-linecap="round" />
	<path d="M 64.292 53.206 c -0.569 -0.149 -1.137 0.179 -1.296 0.745 c -1.632 5.805 -5.347 10.404 -11.502 13.594 c -1.786 0.926 -2.142 3.289 -0.799 4.786 c 4.084 4.555 4.128 11.42 0.912 17.027 c -0.03 0.053 -0.046 0.108 -0.067 0.163 c 1.944 -0.283 3.844 -0.697 5.698 -1.22 c 0.593 -5.485 0.759 -12.866 0.678 -18.679 c 3.994 -3.434 6.635 -6.014 8.267 -12.488 c 0.287 -0.038 0.57 -0.088 0.85 -0.142 c 0.302 -0.058 0.6 -0.129 0.895 -0.205 c 0.253 -0.066 0.501 -0.141 0.748 -0.22 c 0.15 -0.048 0.301 -0.094 0.449 -0.146 c 0.245 -0.087 0.487 -0.179 0.726 -0.278 c 0.061 -0.025 0.122 -0.052 0.183 -0.078 c 1.145 -0.49 2.231 -1.112 3.26 -1.84 c -0.363 -0.986 -0.778 -1.941 -1.223 -2.879 C 69.443 53.098 66.845 53.873 64.292 53.206 z" style="stroke: none; stroke-width: 1; stroke-dasharray: none; stroke-linecap: butt; stroke-linejoin: miter; stroke-miterlimit: 10; fill: rgb(0,0,0); fill-rule: nonzero; opacity: 1;" transform=" matrix(1 0 0 1 0 0) " stroke-linecap="round" />
	<path d="M 38.506 67.545 c -6.154 -3.19 -9.87 -7.789 -11.502 -13.594 c -0.159 -0.566 -0.728 -0.894 -1.296 -0.745 c -2.557 0.668 -5.159 -0.11 -7.792 -1.868 c -0.446 0.94 -0.862 1.897 -1.226 2.886 c 0.002 0.002 0.005 0.003 0.007 0.005 c 0.251 0.178 0.506 0.348 0.764 0.513 c 0.038 0.024 0.077 0.047 0.115 0.071 c 0.496 0.312 1.004 0.599 1.525 0.859 c 0.028 0.014 0.054 0.029 0.082 0.043 c 0.186 0.091 0.377 0.174 0.566 0.258 c 0.178 0.079 0.357 0.156 0.539 0.228 c 0.161 0.064 0.322 0.127 0.485 0.186 c 0.282 0.102 0.568 0.195 0.858 0.28 c 0.076 0.022 0.15 0.049 0.226 0.07 c 0.377 0.104 0.76 0.19 1.149 0.263 c 0.263 0.05 0.526 0.098 0.795 0.133 c 0.07 0.277 0.144 0.538 0.218 0.801 c 0.073 0.263 0.149 0.518 0.226 0.768 c 0.031 0.101 0.063 0.202 0.095 0.301 c 0.078 0.241 0.157 0.477 0.239 0.707 c 0.034 0.096 0.069 0.19 0.104 0.285 c 0.083 0.225 0.167 0.445 0.254 0.659 c 0.036 0.088 0.073 0.174 0.109 0.261 c 0.089 0.212 0.18 0.421 0.273 0.623 c 0.036 0.077 0.073 0.152 0.109 0.228 c 0.097 0.204 0.196 0.406 0.297 0.601 c 0.032 0.062 0.066 0.121 0.099 0.182 c 0.109 0.202 0.218 0.403 0.332 0.596 c 0.022 0.037 0.045 0.072 0.067 0.109 c 0.843 1.409 1.817 2.586 2.938 3.714 c 0.012 0.012 0.024 0.024 0.036 0.037 c 0.182 0.182 0.368 0.363 0.557 0.543 c 0.013 0.012 0.025 0.025 0.038 0.037 c 0.602 0.572 1.242 1.14 1.923 1.73 c 0.001 0.001 0.002 0.003 0.003 0.004 c 0.117 0.101 0.231 0.201 0.351 0.304 c -0.002 0.147 -0.003 0.301 -0.005 0.451 c 0 0.003 0.002 0.006 0.002 0.009 C 32 75.817 32.17 82.956 32.747 88.297 c 1.859 0.525 3.764 0.94 5.713 1.224 c -0.021 -0.055 -0.036 -0.11 -0.067 -0.163 c -3.216 -5.607 -3.172 -12.473 0.912 -17.027 C 40.648 70.833 40.292 68.47 38.506 67.545 z" style="stroke: none; stroke-width: 1; stroke-dasharray: none; stroke-linecap: butt; stroke-linejoin: miter; stroke-miterlimit: 10; fill: rgb(0,0,0); fill-rule: nonzero; opacity: 1;" transform=" matrix(1 0 0 1 0 0) " stroke-linecap="round" />
	<path d="M 40.947 74.977 c 0.617 -0.417 1.235 -0.624 1.852 -0.784 c 0.617 -0.147 1.235 -0.215 1.852 -0.216 c 0.617 -0.002 1.235 0.067 1.852 0.213 c 0.617 0.158 1.235 0.367 1.852 0.786 c -0.617 0.419 -1.235 0.628 -1.852 0.786 c -0.617 0.147 -1.235 0.215 -1.852 0.213 c -0.617 -0.001 -1.235 -0.069 -1.852 -0.216 C 42.182 75.601 41.564 75.393 40.947 74.977 z" style="stroke: none; stroke-width: 1; stroke-dasharray: none; stroke-linecap: butt; stroke-linejoin: miter; stroke-miterlimit: 10; fill: rgb(0,0,0); fill-rule: nonzero; opacity: 1;" transform=" matrix(1 0 0 1 0 0) " stroke-linecap="round" />
	<path d="M 39.066 79.604 c 0.931 -0.417 1.862 -0.624 2.793 -0.784 c 0.931 -0.147 1.862 -0.215 2.793 -0.216 c 0.931 -0.002 1.862 0.067 2.793 0.213 c 0.931 0.158 1.862 0.367 2.793 0.786 c -0.931 0.419 -1.862 0.628 -2.793 0.786 c -0.931 0.147 -1.862 0.215 -2.793 0.213 c -0.931 -0.001 -1.862 -0.069 -2.793 -0.216 C 40.928 80.228 39.997 80.02 39.066 79.604 z" style="stroke: none; stroke-width: 1; stroke-dasharray: none; stroke-linecap: butt; stroke-linejoin: miter; stroke-miterlimit: 10; fill: rgb(0,0,0); fill-rule: nonzero; opacity: 1;" transform=" matrix(1 0 0 1 0 0) " stroke-linecap="round" />
	<path d="M 37.185 84.23 c 1.244 -0.417 2.489 -0.624 3.733 -0.784 c 1.244 -0.147 2.489 -0.215 3.733 -0.216 c 1.244 -0.002 2.489 0.067 3.733 0.213 c 1.244 0.158 2.489 0.367 3.733 0.786 c -1.244 0.419 -2.489 0.628 -3.733 0.786 c -1.244 0.147 -2.489 0.215 -3.733 0.213 c -1.244 -0.001 -2.489 -0.069 -3.733 -0.216 C 39.674 84.854 38.43 84.647 37.185 84.23 z" style="stroke: none; stroke-width: 1; stroke-dasharray: none; stroke-linecap: butt; stroke-linejoin: miter; stroke-miterlimit: 10; fill: rgb(0,0,0); fill-rule: nonzero; opacity: 1;" transform=" matrix(1 0 0 1 0 0) " stroke-linecap="round" />
	<path d="M 29.556 53.612 c 1.014 1.045 1.905 2.099 2.831 3.08 c 0.924 0.98 1.879 1.877 2.901 2.642 c 1.025 0.759 2.118 1.394 3.336 1.838 c 1.219 0.441 2.539 0.7 3.977 0.931 c -1.327 0.596 -2.843 0.796 -4.343 0.586 c -1.5 -0.208 -2.958 -0.839 -4.164 -1.751 c -1.216 -0.906 -2.19 -2.064 -2.947 -3.307 C 30.39 56.384 29.836 55.04 29.556 53.612 z" style="stroke: none; stroke-width: 1; stroke-dasharray: none; stroke-linecap: butt; stroke-linejoin: miter; stroke-miterlimit: 10; fill: rgb(0,0,0); fill-rule: nonzero; opacity: 1;" transform=" matrix(1 0 0 1 0 0) " stroke-linecap="round" />
	<path d="M 60.444 53.612 c -0.28 1.427 -0.833 2.771 -1.59 4.018 c -0.757 1.244 -1.731 2.401 -2.947 3.307 c -1.206 0.912 -2.664 1.543 -4.164 1.751 c -1.5 0.21 -3.016 0.01 -4.343 -0.586 c 1.438 -0.231 2.758 -0.49 3.977 -0.931 c 1.218 -0.444 2.31 -1.079 3.336 -1.838 c 1.022 -0.765 1.977 -1.662 2.901 -2.642 C 58.538 55.712 59.43 54.657 60.444 53.612 z" style="stroke: none; stroke-width: 1; stroke-dasharray: none; stroke-linecap: butt; stroke-linejoin: miter; stroke-miterlimit: 10; fill: rgb(0,0,0); fill-rule: nonzero; opacity: 1;" transform=" matrix(1 0 0 1 0 0) " stroke-linecap="round" />
	<path d="M 54.493 50.414 c -0.8 0.066 -1.43 0.138 -2.056 0.235 c -0.619 0.091 -1.213 0.192 -1.811 0.301 l -1.821 0.344 l -2.052 0.409 c 0.223 -0.783 0.779 -1.386 1.4 -1.84 c 0.631 -0.448 1.361 -0.745 2.12 -0.88 c 0.758 -0.136 1.555 -0.111 2.309 0.106 C 53.328 49.315 54.059 49.725 54.493 50.414 z" style="stroke: none; stroke-width: 1; stroke-dasharray: none; stroke-linecap: butt; stroke-linejoin: miter; stroke-miterlimit: 10; fill: rgb(0,0,0); fill-rule: nonzero; opacity: 1;" transform=" matrix(1 0 0 1 0 0) " stroke-linecap="round" />
	<path d="M 35.507 50.414 c 0.434 -0.689 1.165 -1.099 1.911 -1.325 c 0.755 -0.218 1.551 -0.243 2.309 -0.106 c 0.759 0.135 1.489 0.432 2.12 0.88 c 0.621 0.454 1.177 1.057 1.4 1.84 l -2.052 -0.409 l -1.821 -0.344 c -0.598 -0.109 -1.192 -0.211 -1.811 -0.301 C 36.937 50.552 36.307 50.48 35.507 50.414 z" style="stroke: none; stroke-width: 1; stroke-dasharray: none; stroke-linecap: butt; stroke-linejoin: miter; stroke-miterlimit: 10; fill: rgb(0,0,0); fill-rule: nonzero; opacity: 1;" transform=" matrix(1 0 0 1 0 0) " stroke-linecap="round" />
	<path d="M 45 48.454 c 2.23 0 3.869 -1.919 5.346 -4.387 c -0.612 -0.368 -0.801 -0.529 -1.262 -0.912 l -4.084 0 l -4.084 0 c -0.461 0.384 -0.65 0.545 -1.262 0.913 C 41.13 46.535 42.77 48.454 45 48.454 z" style="stroke: none; stroke-width: 1; stroke-dasharray: none; stroke-linecap: butt; stroke-linejoin: miter; stroke-miterlimit: 10; fill: rgb(240,180,121); fill-rule: nonzero; opacity: 1;" transform=" matrix(1 0 0 1 0 0) " stroke-linecap="round" />
	<path d="M 52.915 33.79 l -0.314 4.881 h 0 c -0.31 3.706 -2.751 6.892 -6.249 8.156 h 0 c -0.437 0.158 -0.895 0.237 -1.353 0.237 h 0 c -0.458 0 -0.916 -0.079 -1.353 -0.237 h 0 c -3.498 -1.264 -5.939 -4.45 -6.249 -8.156 l -0.295 -4.881 v -5.384 l 15.812 -0.141 V 33.79 z" style="stroke: none; stroke-width: 1; stroke-dasharray: none; stroke-linecap: butt; stroke-linejoin: miter; stroke-miterlimit: 10; fill: rgb(255,204,153); fill-rule: nonzero; opacity: 1;" transform=" matrix(1 0 0 1 0 0) " stroke-linecap="round" />
	<path d="M 52.915 33.79 c 3.492 -5.197 1.907 -8.739 -3.715 -10.964 c 0.123 -0.514 0.831 -1.027 1.948 -1.54 c -4.624 -1.737 -10.123 -1.34 -12.638 2.723 c -3.446 1.162 -4.502 5.019 -1.407 9.782 c 0.345 -5.83 4.13 -5.356 8.699 -3.443 c 2.31 0.884 4.316 0.793 6.207 0.498 C 53.043 30.652 52.992 32.49 52.915 33.79 z" style="stroke: none; stroke-width: 1; stroke-dasharray: none; stroke-linecap: butt; stroke-linejoin: miter; stroke-miterlimit: 10; fill: rgb(68,68,68); fill-rule: nonzero; opacity: 1;" transform=" matrix(1 0 0 1 0 0) " stroke-linecap="round" />
	<path d="M 37.712 40.423 c -1.429 -0.416 -2.474 -1.735 -2.474 -3.298 v -1.593 c 0 -0.532 0.432 -0.964 0.964 -0.964 h 0.948 L 37.712 40.423 z" style="stroke: none; stroke-width: 1; stroke-dasharray: none; stroke-linecap: butt; stroke-linejoin: miter; stroke-miterlimit: 10; fill: rgb(255,204,153); fill-rule: nonzero; opacity: 1;" transform=" matrix(1 0 0 1 0 0) " stroke-linecap="round" />
	<path d="M 52.287 40.423 c 1.43 -0.416 2.474 -1.735 2.474 -3.299 v -1.592 c 0 -0.532 -0.432 -0.964 -0.964 -0.964 h -0.911 L 52.287 40.423 z" style="stroke: none; stroke-width: 1; stroke-dasharray: none; stroke-linecap: butt; stroke-linejoin: miter; stroke-miterlimit: 10; fill: rgb(255,204,153); fill-rule: nonzero; opacity: 1;" transform=" matrix(1 0 0 1 0 0) " stroke-linecap="round" />
	<path d="M 48.347 40.863 c -2.231 2.933 -4.463 2.953 -6.694 0 H 48.347 z" style="stroke: none; stroke-width: 1; stroke-dasharray: none; stroke-linecap: butt; stroke-linejoin: miter; stroke-miterlimit: 10; fill: rgb(255,255,255); fill-rule: nonzero; opacity: 1;" transform=" matrix(1 0 0 1 0 0) " stroke-linecap="round" />
	<path d="M 40.768 35.277 c 0.533 -1.166 2.385 -1.171 2.918 0 c -0.633 0.12 -1.038 0.109 -1.459 0.119 C 41.806 35.383 41.4 35.395 40.768 35.277 z" style="stroke: none; stroke-width: 1; stroke-dasharray: none; stroke-linecap: butt; stroke-linejoin: miter; stroke-miterlimit: 10; fill: rgb(229,171,115); fill-rule: nonzero; opacity: 1;" transform=" matrix(1 0 0 1 0 0) " stroke-linecap="round" />
	<path d="M 46.314 35.277 c 0.533 -1.166 2.385 -1.171 2.918 0 c -0.633 0.12 -1.038 0.109 -1.459 0.119 C 47.352 35.383 46.946 35.395 46.314 35.277 z" style="stroke: none; stroke-width: 1; stroke-dasharray: none; stroke-linecap: butt; stroke-linejoin: miter; stroke-miterlimit: 10; fill: rgb(229,171,115); fill-rule: nonzero; opacity: 1;" transform=" matrix(1 0 0 1 0 0) " stroke-linecap="round" />
	<path d="M 62.33 43.059 c 0.538 -0.737 1.305 -1.376 2.21 -1.871 c 4.05 3.669 6.919 8.044 8.756 13.036 c -0.757 0.536 -1.546 1.013 -2.366 1.425 C 68.812 51.004 65.98 46.787 62.33 43.059 z" style="stroke: none; stroke-width: 1; stroke-dasharray: none; stroke-linecap: butt; stroke-linejoin: miter; stroke-miterlimit: 10; fill: rgb(0,0,0); fill-rule: nonzero; opacity: 1;" transform=" matrix(1 0 0 1 0 0) " stroke-linecap="round" />
	<path d="M 27.656 43.059 c -0.538 -0.737 -1.305 -1.376 -2.21 -1.871 c -4.05 3.669 -6.919 8.044 -8.756 13.036 c 0.757 0.536 1.546 1.013 2.366 1.425 C 21.173 51.004 24.006 46.787 27.656 43.059 z" style="stroke: none; stroke-width: 1; stroke-dasharray: none; stroke-linecap: butt; stroke-linejoin: miter; stroke-miterlimit: 10; fill: rgb(0,0,0); fill-rule: nonzero; opacity: 1;" transform=" matrix(1 0 0 1 0 0) " stroke-linecap="round" />
	<path d="M 25.796 27.57 c -0.13 -0.024 -0.153 0.43 -0.23 1.072 c 0.096 0.095 0.194 0.188 0.293 0.277 C 25.959 28.165 25.94 27.597 25.796 27.57 z" style="stroke: none; stroke-width: 1; stroke-dasharray: none; stroke-linecap: butt; stroke-linejoin: miter; stroke-miterlimit: 10; fill: rgb(240,180,121); fill-rule: nonzero; opacity: 1;" transform=" matrix(1 0 0 1 0 0) " stroke-linecap="round" />
	<path d="M 27.131 27.57 c -0.177 -0.033 -0.154 0.82 -0.343 1.832 c -0.014 0.074 -0.03 0.144 -0.045 0.216 c 0.096 0.065 0.198 0.119 0.297 0.178 c 0.024 -0.108 0.047 -0.219 0.069 -0.334 C 27.299 28.45 27.308 27.603 27.131 27.57 z" style="stroke: none; stroke-width: 1; stroke-dasharray: none; stroke-linecap: butt; stroke-linejoin: miter; stroke-miterlimit: 10; fill: rgb(240,180,121); fill-rule: nonzero; opacity: 1;" transform=" matrix(1 0 0 1 0 0) " stroke-linecap="round" />
	<path d="M 28.503 27.397 c -0.177 -0.033 -0.154 0.82 -0.343 1.832 c -0.071 0.378 -0.161 0.724 -0.238 1.011 c 0.097 0.04 0.194 0.081 0.294 0.117 c 0.096 -0.296 0.189 -0.662 0.265 -1.067 C 28.67 28.277 28.68 27.43 28.503 27.397 z" style="stroke: none; stroke-width: 1; stroke-dasharray: none; stroke-linecap: butt; stroke-linejoin: miter; stroke-miterlimit: 10; fill: rgb(240,180,121); fill-rule: nonzero; opacity: 1;" transform=" matrix(1 0 0 1 0 0) " stroke-linecap="round" />
	<path d="M 29.867 27.293 c -0.177 -0.033 -0.154 0.82 -0.343 1.832 c -0.118 0.628 -0.289 1.168 -0.361 1.497 c 0.086 0.017 0.169 0.04 0.256 0.055 c 0.147 -0.314 0.307 -0.86 0.426 -1.491 C 30.034 28.174 30.044 27.326 29.867 27.293 z" style="stroke: none; stroke-width: 1; stroke-dasharray: none; stroke-linecap: butt; stroke-linejoin: miter; stroke-miterlimit: 10; fill: rgb(240,180,121); fill-rule: nonzero; opacity: 1;" transform=" matrix(1 0 0 1 0 0) " stroke-linecap="round" />
	<path d="M 64.231 27.57 c 0.13 -0.024 0.153 0.43 0.23 1.072 c -0.096 0.095 -0.194 0.188 -0.293 0.277 C 64.069 28.165 64.087 27.597 64.231 27.57 z" style="stroke: none; stroke-width: 1; stroke-dasharray: none; stroke-linecap: butt; stroke-linejoin: miter; stroke-miterlimit: 10; fill: rgb(240,180,121); fill-rule: nonzero; opacity: 1;" transform=" matrix(1 0 0 1 0 0) " stroke-linecap="round" />
	<path d="M 62.897 27.57 c 0.177 -0.033 0.154 0.82 0.343 1.832 c 0.014 0.074 0.03 0.144 0.045 0.216 c -0.096 0.065 -0.198 0.119 -0.297 0.178 c -0.024 -0.108 -0.047 -0.219 -0.069 -0.334 C 62.729 28.45 62.719 27.603 62.897 27.57 z" style="stroke: none; stroke-width: 1; stroke-dasharray: none; stroke-linecap: butt; stroke-linejoin: miter; stroke-miterlimit: 10; fill: rgb(240,180,121); fill-rule: nonzero; opacity: 1;" transform=" matrix(1 0 0 1 0 0) " stroke-linecap="round" />
	<path d="M 61.525 27.397 c 0.177 -0.033 0.154 0.82 0.343 1.832 c 0.071 0.378 0.161 0.724 0.238 1.011 c -0.097 0.04 -0.194 0.081 -0.294 0.117 c -0.096 -0.296 -0.189 -0.662 -0.265 -1.067 C 61.357 28.277 61.347 27.43 61.525 27.397 z" style="stroke: none; stroke-width: 1; stroke-dasharray: none; stroke-linecap: butt; stroke-linejoin: miter; stroke-miterlimit: 10; fill: rgb(240,180,121); fill-rule: nonzero; opacity: 1;" transform=" matrix(1 0 0 1 0 0) " stroke-linecap="round" />
	<path d="M 60.161 27.293 c 0.177 -0.033 0.154 0.82 0.343 1.832 c 0.118 0.628 0.289 1.168 0.361 1.497 c -0.086 0.017 -0.169 0.04 -0.256 0.055 c -0.147 -0.314 -0.307 -0.86 -0.426 -1.491 C 59.993 28.174 59.984 27.326 60.161 27.293 z" style="stroke: none; stroke-width: 1; stroke-dasharray: none; stroke-linecap: butt; stroke-linejoin: miter; stroke-miterlimit: 10; fill: rgb(240,180,121); fill-rule: nonzero; opacity: 1;" transform=" matrix(1 0 0 1 0 0) " stroke-linecap="round" />
	<path d="M 44.993 38.286 c 0.293 -0.089 0.63 0.017 0.986 0.209 c -0.499 0.27 -0.988 0.445 -1.49 0.575 c -0.206 0.053 -0.416 -0.07 -0.47 -0.276 c -0.016 -0.063 -0.016 -0.127 -0.002 -0.186 l 0.05 -0.206 c 0.032 -0.134 0.088 -0.33 0.127 -0.536 c 0.055 -0.204 0.09 -0.423 0.164 -0.64 c 0.132 -0.437 0.295 -0.891 0.632 -1.319 C 44.808 36.785 45.252 37.586 44.993 38.286 z" style="stroke: none; stroke-width: 1; stroke-dasharray: none; stroke-linecap: butt; stroke-linejoin: miter; stroke-miterlimit: 10; fill: rgb(229,171,115); fill-rule: nonzero; opacity: 1;" transform=" matrix(1 0 0 1 0 0) " stroke-linecap="round" />
</g>
</svg>