<?xml version="1.0" encoding="UTF-8" standalone="no"?>
<svg
   xmlns:dc="http://purl.org/dc/elements/1.1/"
   xmlns:cc="http://creativecommons.org/ns#"
   xmlns:rdf="http://www.w3.org/1999/02/22-rdf-syntax-ns#"
   xmlns:svg="http://www.w3.org/2000/svg"
   xmlns="http://www.w3.org/2000/svg"
   xmlns:sodipodi="http://sodipodi.sourceforge.net/DTD/sodipodi-0.dtd"
   xmlns:inkscape="http://www.inkscape.org/namespaces/inkscape"
   viewBox="0 0 2000 2000"
   version="1.1"
   id="svg1551"
   sodipodi:docname="favicon.svg"
   inkscape:version="1.0.2 (e86c870879, 2021-01-15)">
  <metadata
     id="metadata1557">
    <rdf:RDF>
      <cc:Work
         rdf:about="">
        <dc:format>image/svg+xml</dc:format>
        <dc:type
           rdf:resource="http://purl.org/dc/dcmitype/StillImage" />
        <dc:title></dc:title>
      </cc:Work>
    </rdf:RDF>
  </metadata>
  <defs
     id="defs1555" />
  <sodipodi:namedview
     pagecolor="#ffffff"
     bordercolor="#666666"
     borderopacity="1"
     objecttolerance="10"
     gridtolerance="10"
     guidetolerance="10"
     inkscape:pageopacity="0"
     inkscape:pageshadow="2"
     inkscape:window-width="1163"
     inkscape:window-height="646"
     id="namedview1553"
     showgrid="false"
     inkscape:zoom="0.25940655"
     inkscape:cx="818.83041"
     inkscape:cy="945.60989"
     inkscape:window-x="0"
     inkscape:window-y="0"
     inkscape:window-maximized="1"
     inkscape:current-layer="svg1551" />
  <text
     xml:space="preserve"
     style="font-size:1834.83px;line-height:1.25;font-family:sans-serif;word-spacing:0px;stroke:#000000;stroke-width:43.0036;stroke-opacity:1"
     x="67.30526"
     y="1785.9424"
     id="text835"
     transform="scale(1.0936551,0.91436506)"><tspan
       sodipodi:role="line"
       id="tspan833"
       x="67.30526"
       y="1785.9424"
       style="font-style:normal;font-variant:normal;font-weight:normal;font-stretch:normal;font-size:1834.83px;font-family:Heebo;-inkscape-font-specification:Heebo;stroke:#000000;stroke-width:43.0036;stroke-opacity:1">fit</tspan></text>
  <rect
     style="fill:#ffffff;stroke:#000000;stroke-width:33.9784"
     id="rect2181"
     width="1964.1075"
     height="1549.8444"
     x="18.8993"
     y="228.03014" />
  <path
     d="M 315.1293,1638.6983 V 658.12599 q 0,-142.53935 93.08289,-218.72416 94.06271,-76.18482 256.71281,-76.18482 31.35424,0 62.70848,3.27677 31.35424,3.27676 61.72865,9.83029 l -9.7982,122.05955 q -20.57621,-3.27676 -47.03136,-4.91515 -25.47531,-1.63838 -50.95062,-1.63838 -86.22415,0 -135.21516,43.41716 -48.01117,42.59796 -48.01117,122.87874 V 1638.6983 Z M 723.7142,867.83903 H 148.55992 V 752.33302 H 723.7142 Z"
     style="font-style:normal;font-variant:normal;font-weight:normal;font-stretch:normal;font-size:1834.83px;line-height:1.25;font-family:Heebo;-inkscape-font-specification:Heebo;word-spacing:0px;stroke:#000000;stroke-width:43.0036;stroke-opacity:1"
     id="path2235" />
  <path
     d="M 1122.5009,1638.6983 H 939.27455 V 752.33302 H 1122.5009 Z M 925.55706,516.40584 q 0,-36.04444 26.45515,-61.43937 27.43495,-25.39494 80.34519,-25.39494 52.9103,0 80.3452,25.39494 28.4148,25.39493 28.4148,61.43937 0,35.22524 -28.4148,60.62017 -27.4349,24.57576 -80.3452,24.57576 -52.91024,0 -80.34519,-24.57576 -26.45515,-25.39493 -26.45515,-60.62017 z"
     style="font-style:normal;font-variant:normal;font-weight:normal;font-stretch:normal;font-size:1834.83px;line-height:1.25;font-family:Heebo;-inkscape-font-specification:Heebo;word-spacing:0px;stroke:#000000;stroke-width:43.0036;stroke-opacity:1"
     id="path2237" />
  <path
     d="M 1857.3658,867.83903 H 1283.1913 V 752.33302 h 574.1745 z M 1659.4421,536.88562 V 1419.155 q 0,45.8747 16.6571,68.8121 16.6569,22.9373 43.112,30.3101 26.4552,7.3727 56.8296,7.3727 22.5358,0 47.0313,-3.2768 25.4754,-3.2767 37.2331,-5.7344 l 0.9799,122.0596 q -21.5561,5.7344 -56.8295,10.6495 -34.2938,5.7343 -83.2847,5.7343 -66.6278,0 -122.4776,-22.1181 -55.8497,-22.1182 -89.1636,-73.7273 -33.3138,-52.4282 -33.3138,-140.9009 V 536.88562 Z"
     style="font-style:normal;font-variant:normal;font-weight:normal;font-stretch:normal;font-size:1834.83px;line-height:1.25;font-family:Heebo;-inkscape-font-specification:Heebo;word-spacing:0px;stroke:#000000;stroke-width:43.0036;stroke-opacity:1"
     id="path2239" />
</svg>
